<?xml version="1.0" encoding="UTF-8" standalone="no"?>
<svg
   xmlns:dc="http://purl.org/dc/elements/1.1/"
   xmlns:cc="http://creativecommons.org/ns#"
   xmlns:rdf="http://www.w3.org/1999/02/22-rdf-syntax-ns#"
   xmlns:svg="http://www.w3.org/2000/svg"
   xmlns="http://www.w3.org/2000/svg"
   xmlns:sodipodi="http://sodipodi.sourceforge.net/DTD/sodipodi-0.dtd"
   xmlns:inkscape="http://www.inkscape.org/namespaces/inkscape"
   width="22"
   height="30"
   fill="none"
   stroke="#000000"
   version="1.1"
   viewBox="0 0 22 30"
   id="svg32"
   sodipodi:docname="logo-black.svg"
   inkscape:version="0.92.3 (2405546, 2018-03-11)">
  <defs
     id="defs36" />
  <sodipodi:namedview
     pagecolor="#ffffff"
     bordercolor="#666666"
     borderopacity="1"
     objecttolerance="10"
     gridtolerance="10"
     guidetolerance="10"
     inkscape:pageopacity="0"
     inkscape:pageshadow="2"
     inkscape:window-width="1366"
     inkscape:window-height="705"
     id="namedview34"
     showgrid="false"
     inkscape:zoom="7.8666667"
     inkscape:cx="11"
     inkscape:cy="15"
     inkscape:window-x="-8"
     inkscape:window-y="-8"
     inkscape:window-maximized="1"
     inkscape:current-layer="svg32" />
  <metadata
     id="metadata2">
    <rdf:RDF>
      <cc:Work
         rdf:about="">
        <dc:format>image/svg+xml</dc:format>
        <dc:type
           rdf:resource="http://purl.org/dc/dcmitype/StillImage" />
        <dc:title />
      </cc:Work>
    </rdf:RDF>
  </metadata>
  <path
     id="path64"
     d="M 1.4342835,22.756685 C 1.2933466,22.046499 1.2764784,21.316377 1.2427535,20.594981 1.2284532,17.897097 1.6595836,15.221378 1.9966724,12.551354 2.319313,9.8439708 2.7498281,7.1511794 3.130527,4.4516884 3.157428,4.2606099 3.184003,4.0694852 3.211231,3.8784529 3.228649,3.7562459 3.246204,3.6340567 3.264464,3.5119727 3.267664,3.4905767 3.310996,3.2146256 3.311917,3.2141369 5.0780179,2.2766425 4.9809295,1.779147 5.0226256,2.6327529 c -0.040224,1.4532941 -0.123276,2.9078625 -0.00865,4.3605746 0.046652,0.5912504 0.1330035,1.1786958 0.1995052,1.7680438 0.3665926,2.6356067 0.9801536,5.2482327 1.9763524,7.7209567 0.4518292,1.121512 0.6700788,1.476074 1.2107483,2.496763 0.6243968,1.099387 1.4768463,2.036302 2.4321525,2.854543 0.05142,0.03365 0.206503,0.0686 0.154254,0.100944 -0.517095,0.320068 -1.0699228,0.58363 -1.6326729,0.814157 -0.047755,0.01956 0.024651,-0.102133 0.019972,-0.153527 C 9.3573424,22.409095 9.3181407,22.225684 9.2898759,22.040951 9.07069,20.608397 9.1948176,21.46687 8.9577892,19.69734 8.6905508,17.408321 8.3465538,15.119944 8.2637254,12.813532 8.2168514,11.508291 8.2629585,11.104969 8.3268601,9.8360011 8.4938962,8.6063891 8.5641135,6.960931 9.4691821,5.9908941 9.5672215,5.8858171 9.6889919,5.8057045 9.7988968,5.7131097 10.417519,5.3512054 11.03614,4.9893011 11.654762,4.6273968 c 0,0 -1.411056,1.1425576 -1.411056,1.1425576 v 0 c 0.408514,-0.2407094 0.817027,-0.4814188 1.22554,-0.7221281 -0.120844,0.082356 -0.253081,0.1500833 -0.362532,0.2470691 -1.017578,0.9016818 -1.1733636,2.6047091 -1.3912647,3.8448789 -0.1020856,1.2875027 -0.162678,1.6658787 -0.13502,2.9929937 0.047788,2.293001 0.3771702,4.576281 0.7509957,6.834581 0.238324,1.103426 0.256243,1.265068 0.516761,2.236606 0.04686,0.174757 0.09742,0.348577 0.152207,0.521015 0.0359,0.113015 0.214399,0.263574 0.119734,0.334986 C 9.609258,23.199711 9.8430333,23.345527 9.2773647,22.792922 8.3998442,21.878548 7.5510789,20.933708 7.0161715,19.7665 6.5616152,18.778358 6.2940504,18.244824 5.9114989,17.188172 5.0030212,14.67885 4.4154331,12.059242 3.9188561,9.4425329 3.8309828,8.8607592 3.7287286,8.2809764 3.6552361,7.6972117 3.4791333,6.2983945 3.4357386,4.891625 3.3725244,3.485407 3.3182778,2.7044097 3.3115207,3.2960765 5.0199127,2.4212547 5.0495157,2.4060958 4.9799987,2.4752711 4.9671963,2.5059668 4.9036284,2.6583814 4.8225304,2.9826832 4.7915376,3.1096425 4.7429359,3.3087353 4.6994524,3.5090428 4.6534098,3.708743 c -0.5649617,2.7104389 -1.0019326,5.4461412 -1.34282,8.193671 -0.3258841,2.611795 -0.6629393,5.243102 -0.5007303,7.880618 0.061705,0.685196 0.094053,1.387378 0.2713059,2.05399 0,0 -1.6468819,0.919663 -1.6468819,0.919663 z"
     inkscape:connector-curvature="0" />
  <path
     id="path68"
     d="m 12.661666,7.8350397 c 0.436291,0.02177 0.86615,0.1105225 1.297893,0.173588 0.418261,0.061786 0.840637,0.078385 1.262689,0.087652 0.406544,0.00624 0.813131,0.00487 1.219703,0.00294 0.318973,0.00984 0.630936,-0.00292 0.945358,-0.050787 0.289754,-0.046421 0.582439,-0.0664 0.875377,-0.077084 0.271997,0.00545 0.537011,-0.00909 0.80511,-0.051473 0.155763,-0.079037 0.332985,-0.098606 0.495567,-0.1541675 0.035,-0.011963 0.06663,-0.032155 0.09995,-0.048232 0.03877,-0.01191 0.07754,-0.02382 0.116306,-0.035729 0.133891,6.748e-4 0.202828,-0.1055116 0.317162,-0.15259 0.02126,-0.00875 0.04478,-0.01057 0.06686,-0.016977 0.0074,-0.00213 0.01758,-0.015292 0.02129,-0.0086 0.04377,0.079031 0.07393,0.1648616 0.110892,0.2472924 -0.34187,0.2517805 -0.608151,0.5828377 -0.887353,0.8985808 -0.525661,0.6233514 -1.077754,1.2210813 -1.648353,1.8032776 -0.526934,0.489434 -1.025768,1.005864 -1.488525,1.555998 -0.439027,0.559099 -0.841765,1.145017 -1.273641,1.709567 -0.504802,0.677999 -0.88665,1.429405 -1.225436,2.200359 -0.24847,0.510406 -0.453113,1.036143 -0.599979,1.584134 -0.07484,0.324048 -0.199701,0.646999 -0.214825,0.98231 0.01874,-0.01908 -0.0064,-0.05269 0.0042,-0.07564 0.04615,-0.100622 0.462328,-0.23891 0.561486,-0.280046 0.443127,-0.171305 0.895693,-0.319875 1.348021,-0.467535 0.372957,-0.126188 0.748389,-0.212794 1.139377,-0.25378 0.420734,-0.0222 0.839299,-0.02699 1.258041,-0.07546 0.418204,-0.04268 0.83776,-0.0643 1.257766,-0.07772 0.353965,-0.01514 0.70538,0.07182 1.039794,0.180862 0.372119,0.123655 0.619643,0.423876 0.901746,0.676679 0.25315,0.214164 0.383494,0.4987 0.502435,0.798902 0.06828,0.227745 0.159955,0.444625 0.255595,0.661888 0,0 -1.62993,0.917789 -1.62993,0.917789 v 0 c -0.09733,-0.219571 -0.195803,-0.435713 -0.256947,-0.669035 -0.109512,-0.273461 -0.22377,-0.532876 -0.454199,-0.730145 -0.258887,-0.243368 -0.501336,-0.507716 -0.856239,-0.606478 -0.327414,-0.09064 -0.662456,-0.154785 -1.004039,-0.132175 -0.415708,0.01266 -0.831097,0.03726 -1.244437,0.08467 -0.419285,0.03896 -0.840436,0.03408 -1.259076,0.08079 -0.379859,0.05479 -0.746498,0.160998 -1.11155,0.278284 -0.450096,0.151129 -0.905851,0.290111 -1.340724,0.481591 -0.127876,0.0562 -0.254512,0.115264 -0.383234,0.169501 -0.183042,0.07712 -0.326469,0.10285 -0.411968,-0.11157 0.0078,-0.352618 0.155442,-0.695961 0.230157,-1.03715 0.148532,-0.568847 0.352545,-1.114372 0.63551,-1.631823 0.337449,-0.772515 0.703636,-1.529591 1.178505,-2.229306 0.444195,-0.555312 0.854585,-1.135362 1.2692,-1.712856 0.461457,-0.570023 0.977271,-1.089879 1.518163,-1.585639 0.563857,-0.570362 1.112901,-1.1523405 1.61332,-1.7799206 0.273211,-0.2979239 0.5068,-0.6333422 0.816138,-0.8956847 0.05071,0.070698 0.104638,0.1391969 0.152131,0.2120955 0.01396,0.021433 -0.340392,0.1436034 -0.388529,0.1572343 -0.235799,0.086901 -0.481798,0.1541518 -0.727205,0.2063876 -0.272112,0.034382 -0.544938,0.029313 -0.818682,0.039148 -0.288532,0.015453 -0.576,0.043302 -0.861504,0.08865 -0.316202,0.040295 -0.634073,0.023183 -0.952213,0.024001 -0.406916,-9.727e-4 -0.813934,5.421e-4 -1.220759,-0.00862 -0.42407,-0.013485 -0.847752,-0.040649 -1.266532,-0.1125963 -0.435817,-0.066935 -0.873887,-0.1505145 -1.317023,-0.1257836 0,0 1.527208,-1.1095816 1.527208,-1.1095816 z"
     inkscape:connector-curvature="0" />
</svg>
