<?xml version="1.0" encoding="UTF-8" standalone="no"?>
<svg
   xmlns:dc="http://purl.org/dc/elements/1.1/"
   xmlns:cc="http://creativecommons.org/ns#"
   xmlns:rdf="http://www.w3.org/1999/02/22-rdf-syntax-ns#"
   xmlns:svg="http://www.w3.org/2000/svg"
   xmlns="http://www.w3.org/2000/svg"
   xmlns:sodipodi="http://sodipodi.sourceforge.net/DTD/sodipodi-0.dtd"
   xmlns:inkscape="http://www.inkscape.org/namespaces/inkscape"
   width="32"
   height="32"
   viewBox="0 0 32 32"
   transform="translate(0, 32) scale(1, -1)"
   stroke="#03bc25"
   fill="none"
   version="1.1"
   id="svg30"
   sodipodi:docname="logo.svg"
   inkscape:version="0.92.3 (2405546, 2018-03-11)">
  <metadata
     id="metadata36">
    <rdf:RDF>
      <cc:Work
         rdf:about="">
        <dc:format>image/svg+xml</dc:format>
        <dc:type
           rdf:resource="http://purl.org/dc/dcmitype/StillImage" />
      </cc:Work>
    </rdf:RDF>
  </metadata>
  <defs
     id="defs34" />
  <sodipodi:namedview
     pagecolor="#ffffff"
     bordercolor="#666666"
     borderopacity="1"
     objecttolerance="10"
     gridtolerance="10"
     guidetolerance="10"
     inkscape:pageopacity="0"
     inkscape:pageshadow="2"
     inkscape:window-width="1366"
     inkscape:window-height="705"
     id="namedview32"
     showgrid="false"
     inkscape:zoom="7.375"
     inkscape:cx="16"
     inkscape:cy="16"
     inkscape:window-x="-8"
     inkscape:window-y="-8"
     inkscape:window-maximized="1"
     inkscape:current-layer="svg30" />
  <path
     style="fill:#00ff00"
     id="path42"
     d="M 3.1682145,25.383796 C 3.0607589,22.954872 2.915389,20.526407 2.7641686,18.099477 2.6325317,15.959877 2.4070284,13.827651 2.2495463,11.690113 2.1810431,10.760303 2.1236613,9.8297063 2.0582623,8.8996737 2.0036026,7.8514541 1.8602547,6.8125289 1.7221586,5.7733565 1.6725436,5.4000041 1.5949309,5.0666883 1.6750289,4.7007422 2.2899143,4.3788206 2.8663022,3.9690893 3.519685,3.7349775 3.6141486,3.7011306 3.6469284,3.8906264 3.7021471,3.9744111 3.792272,4.11116 3.8705186,4.2553779 3.95509,4.3956292 4.3982619,5.1305753 4.8235661,5.8754034 5.2636499,6.6123224 6.632402,8.9563507 7.6919021,11.458084 8.6358487,13.997458 c 0.6158861,1.619248 1.0141806,3.306786 1.5085883,4.963976 0.330011,1.106154 0.38076,1.233625 0.736918,2.31025 0.552736,1.420369 0.934655,2.911133 1.666385,4.255575 0.209262,0.517646 0.07428,0.02437 0.05466,0.03232 -0.587596,0.238026 -1.075613,0.737887 -1.698538,0.855743 -0.172921,0.03272 -0.02858,-0.350815 -0.04335,-0.526183 -0.111157,-1.319936 -0.05279,-0.495477 -0.142823,-2.100197 -0.03061,-2.379751 -0.09259,-4.764509 0.08457,-7.140426 0.119206,-1.598727 0.199567,-2.005331 0.415568,-3.57289 0.45388,-2.528357 1.197724,-5.0103171 2.252361,-7.353498 0.205151,-0.423198 0.457528,-0.8144142 0.738465,-1.189477 0,0 1.786434,-0.7620603 1.786434,-0.7620603 v 0 c -0.322517,0.3703914 -0.609034,0.7639167 -0.852333,1.1925097 -0.124201,0.2385217 -0.256616,0.4729434 -0.372604,0.7155651 -1.012813,2.118587 -1.664385,4.3970525 -2.122071,6.6938165 -0.23153,1.538642 -0.329634,2.004393 -0.449787,3.573909 -0.179379,2.343141 -0.121469,4.703372 0.05099,7.044598 0.129739,1.020437 0.121499,1.106478 0.29487,2.008705 0.0321,0.167028 0.218934,0.368462 0.109217,0.498427 -1.298723,1.538405 -1.459741,1.91327 -1.794572,0.983873 C 10.303014,25.043243 9.8386065,23.573846 9.3577103,22.108922 9.0904783,21.259833 8.8918506,20.641138 8.6380881,19.782963 8.1484389,18.127067 7.760315,16.440475 7.1526249,14.820703 6.2199908,12.292258 5.2069459,9.7741489 3.7345485,7.5030222 3.2618343,6.7905543 2.8145146,6.053585 2.3055759,5.36581 2.2122889,5.2397427 2.1172292,5.114555 2.0131752,4.9972171 1.9743245,4.9534066 1.8320091,4.9197945 1.8785934,4.8843174 2.3813508,4.5014337 2.9492067,4.2125683 3.4845134,3.8766937 c -0.037468,0.045358 -0.094831,0.079929 -0.1124038,0.1360751 -0.058922,0.1882644 -0.034999,0.7996347 -0.029745,0.9137953 0.049103,1.0670157 0.1706957,2.1307621 0.2100902,3.19846 0.2187379,3.0827639 0.3915251,6.1688739 0.6048011,9.2521029 0.038944,0.48453 0.2376325,2.993122 0.2920878,3.533213 0.1324225,1.313371 0.1577154,1.301856 0.3271041,2.472895 0.1662359,1.149243 0.020768,0.247732 0.1584927,1.078075 0,0 -1.7667256,0.922486 -1.766726,0.922486 z"
     inkscape:connector-curvature="0" />
  <path
     style="fill:#00ff00"
     id="path50"
     d="m 8.2486677,11.418978 c 0.679441,-0.374011 1.349023,-0.76652 2.0383233,-1.122034 0.203372,-0.104891 1.484811,-0.5697801 1.552407,-0.5954112 1.189163,-0.4509028 2.372131,-0.9177581 3.561523,-1.3681636 1.3773,-0.5167723 2.768915,-1.0100725 4.210968,-1.3147716 0.684673,-0.1446682 0.945611,-0.1681342 1.624866,-0.2604705 1.217788,-0.1199494 2.446521,-0.1741952 3.67004,-0.1343307 0.601006,0.00403 1.186703,0.1063752 1.736232,0.3476291 0.823679,0.4478925 -0.733215,0.7713571 -1.623383,1.3709367 -0.399865,0.2693323 0.826039,-0.8568918 1.275368,-0.6821482 0.37561,0.1460742 -0.579771,0.5599527 -0.869656,0.8399291 -3.614662,4.1283849 -6.678704,8.7000669 -9.725355,13.2528399 -1.599548,2.422915 -3.280792,4.800863 -4.670373,7.353983 -0.353656,0.70649 -0.664201,1.441407 -0.879529,2.203058 -0.6083794,0.279992 -1.1960057,0.610382 -1.8251384,0.839975 -0.060092,0.02193 0.019457,-0.126943 0.038568,-0.187991 0.023515,-0.07512 0.05713,-0.146741 0.088777,-0.218809 0.17647,-0.401865 0.4054059,-0.767408 0.6348495,-1.140778 0.6333328,-1.063957 1.4048559,-2.047995 2.2580789,-2.9447 0.481996,-0.506558 1.335866,-1.295801 1.836278,-1.76656 1.642354,-1.44282 3.392559,-2.780386 5.275533,-3.896836 0.831785,-0.493181 1.675196,-0.966484 2.512795,-1.449726 1.700363,-0.926198 3.595845,-1.28242 5.477351,-1.627522 0.665156,-0.09499 1.355241,-0.299974 2.02144,-0.117306 0.268614,0.08686 0.53091,0.194792 0.798005,0.289371 0,0 -1.65562,1.117235 -1.65562,1.117235 v 0 c -0.260123,-0.09598 -0.519404,-0.1981 -0.786124,-0.27317 -0.613935,-0.138411 -1.248482,0.03139 -1.860089,0.1006 -1.845104,0.306188 -3.688107,0.684846 -5.343189,1.601643 0.145425,-0.08741 0.579435,-0.353306 0.436275,-0.262233 -0.35674,0.226944 -0.72233,0.439885 -1.077097,0.6699 -1.482704,0.961319 -2.900172,2.025914 -4.221427,3.199741 -0.364025,0.345244 -1.437227,1.353188 -1.800133,1.734746 -0.82064,0.862818 -1.556804,1.818695 -2.140674,2.857152 -0.206559,0.355549 -0.284396,0.47306 -0.454424,0.81832 -0.01689,0.0343 -0.209203,0.532168 -0.24746,0.552655 -0.596536,0.319441 -1.2104754,0.60526 -1.815713,0.907891 0.1502418,-0.109317 0.2143231,-0.363873 0.279372,-0.519904 0.2466109,-0.591541 0.4892982,-1.18572 0.7973887,-1.749071 1.5207273,-2.620493 3.3259033,-5.057333 5.0573463,-7.539744 2.213099,-3.191177 0.842137,-1.221228 3.207993,-4.602531 1.665313,-2.38008 3.317834,-4.771419 5.05992,-7.096576 0.36214,-0.483348 0.739178,-0.9553518 1.108767,-1.4330275 1.281715,-1.4669531 0.301812,-0.5089812 2.774629,-2.0691396 0.520468,-0.3283758 -1.08053,0.5952212 -1.581098,0.9532018 -0.03768,0.026943 0.267586,0.188334 -0.02025,0.016238 -0.514911,-0.2323143 -1.069722,-0.3137228 -1.632776,-0.3283706 -1.196857,-0.047451 -2.398095,-0.00912 -3.589565,0.1148328 -0.676857,0.090201 -0.898821,0.1076705 -1.582403,0.2508501 -1.411674,0.2956818 -2.776777,0.7702416 -4.12448,1.2767909 -1.209376,0.4590311 -2.413398,0.9292201 -3.613948,1.4108971 -0.329506,0.132203 -0.6605426,0.260715 -0.987852,0.398267 -0.2308961,0.09703 -0.8851772,0.457902 -0.6865104,0.305389 0.4162377,-0.319539 0.8986372,-0.542113 1.3479554,-0.813169 0,0 -1.8667871,0.730422 -1.8667871,0.730422 z"
     inkscape:connector-curvature="0" />
</svg>
