<?xml version="1.0" encoding="UTF-8" standalone="no"?>
<svg
   xmlns:dc="http://purl.org/dc/elements/1.1/"
   xmlns:cc="http://creativecommons.org/ns#"
   xmlns:rdf="http://www.w3.org/1999/02/22-rdf-syntax-ns#"
   xmlns:svg="http://www.w3.org/2000/svg"
   xmlns="http://www.w3.org/2000/svg"
   xmlns:sodipodi="http://sodipodi.sourceforge.net/DTD/sodipodi-0.dtd"
   xmlns:inkscape="http://www.inkscape.org/namespaces/inkscape"
   width="32"
   height="32"
   viewBox="0 0 32 32"
   transform="translate(0, 32) scale(1, -1)"
   stroke="#03bc25"
   fill="none"
   version="1.1"
   id="svg30"
   sodipodi:docname="about-me.svg"
   inkscape:version="0.92.3 (2405546, 2018-03-11)">
  <metadata
     id="metadata36">
    <rdf:RDF>
      <cc:Work
         rdf:about="">
        <dc:format>image/svg+xml</dc:format>
        <dc:type
           rdf:resource="http://purl.org/dc/dcmitype/StillImage" />
      </cc:Work>
    </rdf:RDF>
  </metadata>
  <defs
     id="defs34" />
  <sodipodi:namedview
     pagecolor="#ffffff"
     bordercolor="#666666"
     borderopacity="1"
     objecttolerance="10"
     gridtolerance="10"
     guidetolerance="10"
     inkscape:pageopacity="0"
     inkscape:pageshadow="2"
     inkscape:window-width="1366"
     inkscape:window-height="705"
     id="namedview32"
     showgrid="false"
     inkscape:zoom="7.375"
     inkscape:cx="16.253691"
     inkscape:cy="16"
     inkscape:window-x="-8"
     inkscape:window-y="-8"
     inkscape:window-maximized="1"
     inkscape:current-layer="svg30" />
  <path
     style="fill:none;stroke:#000000;stroke-opacity:1"
     id="path12"
     d="m 30.42478,3.0735714 c -0.327829,0.6175181 -0.722657,1.1938387 -1.087829,1.788926 -0.632774,0.9921943 -0.960615,2.1141048 -1.261302,3.2397684 -0.528673,1.9893512 -0.606285,4.0576962 -0.674585,6.1038312 -0.02591,2.2566 0.01075,4.51349 0.07748,6.769089 0.05161,1.396524 0.33347,2.768778 0.623977,4.131361 0.122008,0.548798 0.269502,1.084546 0.503527,1.595644 -0.584522,0.337914 -1.122118,0.774731 -1.753565,1.013743 -0.102055,0.03863 -0.08107,-0.202635 -0.12043,-0.304409 -0.06293,-0.162702 -0.120279,-0.327592 -0.186443,-0.489005 -0.410687,-1.001909 -0.234514,-0.488515 -0.709035,-1.633914 -0.171021,-0.412812 -0.329934,-0.830537 -0.494901,-1.245805 -0.192677,-0.51493 -0.381048,-1.031491 -0.57803,-1.544789 -0.556391,-1.44985 -0.751578,-1.859458 -1.281733,-3.325822 -0.61851,-1.710745 -1.156966,-3.446 -1.685772,-5.185895 C 21.372576,12.335994 20.72093,10.725363 20.50571,9.027072 20.45889,8.5602997 20.57175,8.1182399 20.759546,7.696263 20.91874,7.3603969 21.004409,6.9956702 21.166332,6.6615966 c 0.13165,-0.2366161 0.319878,-0.4333103 0.482984,-0.6478217 0.186612,-0.248269 0.376319,-0.4940126 0.570132,-0.7367271 0.609414,-0.2600623 1.206385,-0.5514716 1.828243,-0.7801867 0.01392,-0.00512 -0.01588,0.091352 -0.118356,0.2511528 -0.107289,0.1673108 -0.227588,0.3276954 -0.345228,0.4877222 -0.379029,0.5164963 -0.646986,1.0921109 -0.854896,1.6950248 -0.250395,0.7349101 -0.341089,1.5077077 -0.442449,2.2734704 -0.164118,0.9720047 -0.222552,1.9568457 -0.295453,2.9386617 -0.0855,1.10607 -0.170308,2.21142 -0.214552,3.320047 -0.02954,0.799727 -0.01334,1.600304 -0.04966,2.399706 -0.01319,0.725758 -0.13534,1.435898 -0.392603,2.113679 -0.464987,1.068424 -1.187824,2.002672 -1.949347,2.874604 -0.657341,0.675444 -1.413793,1.254404 -2.235982,1.715543 -2.286534,1.282443 -1.438006,0.960104 -2.870371,1.426485 -1.479827,0.404904 -3.012187,0.504337 -4.5391686,0.491808 -0.976932,0.0073 -1.8665542,-0.22182 -2.7047383,-0.71617 -0.535749,-0.368299 -0.8751091,-0.636743 -0.8133205,-1.331835 0.035844,-0.187703 0.1336239,-0.315154 0.2610719,-0.448138 0,0 1.8529209,-0.741493 1.8529209,-0.741493 v 0 c -0.1445777,0.08164 -0.2604441,0.160352 -0.3308953,0.319213 -0.016033,0.05728 -0.041079,0.112776 -0.048099,0.171843 -0.053937,0.453844 0.3866331,0.749863 0.7066621,0.974564 0.8030537,0.468456 1.6612468,0.666639 2.5913998,0.674369 1.513921,0.02801 3.033672,-0.09144 4.489521,-0.534984 0.221391,-0.08058 0.819002,-0.419312 0.664174,-0.241732 -0.258256,0.296208 -0.677099,0.400594 -0.999099,0.625875 -0.18512,0.129515 0.396491,-0.217322 0.587533,-0.337931 0.30056,-0.189749 0.880089,-0.609635 1.148954,-0.8358 0.18583,-0.156318 0.357162,-0.329103 0.535743,-0.493654 0.162556,-0.181502 0.333231,-0.356048 0.48767,-0.544505 0.555784,-0.678209 1.0315,-1.442253 1.405248,-2.233594 0.272717,-0.65396 0.395671,-1.350839 0.426172,-2.057935 0.03395,-0.803608 0.01628,-1.609005 0.07301,-2.412036 0.05886,-1.110748 0.146719,-2.219384 0.220049,-3.329177 0.07698,-0.976795 0.108966,-1.958151 0.250058,-2.928568 0.107009,-0.7753469 0.197659,-1.5594391 0.435092,-2.3082761 0.185025,-0.6122512 0.430749,-1.198509 0.787514,-1.7321972 0.73776,-1.0321412 0.425826,-0.7254656 2.309939,-1.5216024 -0.230971,0.2136567 -0.405161,0.4759215 -0.596019,0.7238211 -0.158587,0.2142933 -0.321779,0.4225227 -0.490027,0.6272038 -0.2185,0.302919 -0.268758,0.6822885 -0.42508,1.0175436 -0.179953,0.4045669 -0.358144,0.8109775 -0.346611,1.2655088 0.08993,1.7281454 0.598844,3.4044264 0.991702,5.0797564 0.149856,0.543609 0.288661,1.090386 0.449568,1.630827 0.851497,2.859935 1.978017,5.629347 3.163946,8.364225 0.43997,0.939817 0.896619,1.859889 1.380702,2.777116 0.07971,0.151024 0.154874,0.304482 0.237696,0.45382 0.03464,0.06247 0.17075,0.137189 0.114458,0.181159 -0.523873,0.409199 -1.129243,0.701682 -1.693865,1.052524 -0.06617,-0.199424 -0.157617,-0.391608 -0.212697,-0.594593 -0.09586,-0.353266 -0.13631,-0.722152 -0.226922,-1.076638 -0.245076,-1.394701 -0.506584,-2.791432 -0.541318,-4.211773 0.0056,-2.267892 -0.05596,-4.53528 -0.0294,-6.803055 0.07335,-2.032319 0.07255,-4.097088 0.547468,-6.0851181 0.282099,-1.1247766 0.567362,-2.2558779 1.173927,-3.2589133 0.259552,-0.4467256 0.581742,-0.8620217 0.815056,-1.3232464 0.04344,-0.08587 0.07224,-0.178586 0.114866,-0.2648603 0.02676,-0.054152 0.06192,-0.1037252 0.09289,-0.1555879 0,0 1.828232,-0.8271496 1.828232,-0.8271496 z"
     inkscape:connector-curvature="0" />
  <path
     style="fill:none;stroke:#000000;stroke-opacity:1"
     id="path4534"
     d="M 15.621292,21.294106 C 15.313379,19.625347 14.389837,18.234865 13.185924,17.060268 12.804484,16.688116 12.377703,16.365465 11.973593,16.018063 10.369747,14.804527 8.5692505,13.874851 6.6022257,13.423052 5.6606303,13.20678 5.1260607,13.179426 4.1895561,13.084499 c -0.8883239,-0.01826 -1.8485826,-0.0355 -2.6804795,0.337033 -0.1067893,0.04782 -0.4069928,0.231102 -0.304857,0.174013 0.5018706,-0.280523 1.0027142,-0.562879 1.5040713,-0.844318 -0.092312,0.127468 -0.06857,-0.119081 -0.031528,-0.15794 0.068306,-0.07166 0.1854845,-0.06978 0.2753044,-0.111404 C 3.118858,12.404583 3.2801375,12.315835 3.4460878,12.23675 4.2773509,11.8406 4.2721712,11.857632 5.2139484,11.462708 6.5366556,10.917026 7.8666213,10.383243 9.2167999,9.9084109 9.6707836,9.7487535 10.123799,9.5841393 10.586923,9.4533402 11.754119,9.123691 12.058518,9.1231658 13.239118,8.9625509 c 1.305466,-0.073539 2.653322,0.037438 3.876058,0.5366612 0.383013,0.1563782 0.598312,0.3084106 0.936796,0.5203009 0.172145,0.163934 0.533754,0.382335 0.511519,0.678394 -0.0054,0.07198 -0.02302,0.161865 -0.08476,0.199259 -1.850619,1.120912 -1.270713,1.078969 -2.38367,1.022503 -0.236186,-0.03498 -0.475131,-0.05475 -0.708558,-0.104942 C 13.628246,11.436653 11.942815,10.660659 10.466194,9.6405688 10.054839,9.3563932 9.6753787,9.0286154 9.279971,8.7226387 7.935842,7.6238746 6.8397123,6.276522 5.7112228,4.9689362 5.3422898,4.4907865 4.9058079,4.0731463 4.4922799,3.6352661 c 0,0 1.6781854,-1.0176252 1.6781854,-1.0176252 v 0 c 0.3974225,0.4531749 0.8270639,0.8793374 1.1851541,1.3660038 1.0412647,1.3431036 1.9997844,2.7654582 3.3293566,3.8534938 0.389281,0.3024599 0.760873,0.6291769 1.167843,0.9073797 1.49817,1.0241416 3.233854,1.7619358 5.040113,1.9981678 0.251825,0.03294 0.507245,0.02655 0.760868,0.03983 0.139077,-0.01248 0.523644,-0.127851 0.417231,-0.03744 -0.431165,0.36634 -0.971527,0.581738 -1.436773,0.903693 -0.04616,0.03194 0.124465,0.01242 0.16657,-0.0247 0.03323,-0.0293 0.02604,-0.0905 0.01163,-0.132395 -0.06092,-0.177176 -0.253517,-0.319831 -0.376493,-0.436007 -0.313321,-0.2169 -0.491317,-0.358766 -0.853892,-0.52013 C 14.420377,10.018526 13.124893,9.9113531 11.870635,9.9856917 10.678461,10.151632 10.445929,10.142733 9.2647498,10.480356 8.807087,10.611172 8.3585256,10.772371 7.9097949,10.931144 6.5352425,11.417498 5.1827494,11.96832 3.8444208,12.545886 2.3393476,13.216914 3.2330574,12.8037 1.9710706,13.414032 1.959307,13.419721 1.2297363,13.803406 1.0681513,13.785111 0.74642822,13.748686 0.8253139,13.632146 0.86842485,13.480496 1.5819353,13.056777 2.2442175,12.513115 3.0292778,12.244199 3.8582102,11.960255 4.764695,12.011908 5.6223263,12.069474 c 1.2715847,0.177314 2.5279571,0.372795 3.7401455,0.820893 1.4448072,0.534087 2.7718262,1.335853 3.9937922,2.264639 1.007208,0.841495 1.452857,1.14084 2.301081,2.125839 0.776869,0.902138 1.318776,1.952484 1.708792,3.069684 0,0 -1.744845,0.943577 -1.744845,0.943577 z"
     inkscape:connector-curvature="0" />
</svg>
